# xmcd
#
# Track frame offsets:
#	150
#	21271
#	57979
#	96033
#	129267
#	161134
#	208083
#
# Disc length: 3216 seconds
#
# Revision: 2
# Processed by: cddbd v1.5.2PL0 Copyright (c) Steve Scherf et al.
# Submitted via: EZCDDA 4.3.2
#
DISCID=5b0c8e07
DTITLE=Ereb Altor - By Honour
DYEAR=1900
DGENRE=
TTITLE0=Perennial
TTITLE1=Awakening
TTITLE2=By Honour
TTITLE3=Winter Wonderland
TTITLE4=Dark Nymph
TTITLE5=Wizard
TTITLE6=Ereb Altor
EXTD=
EXTT0=
EXTT1=
EXTT2=
EXTT3=
EXTT4=
EXTT5=
EXTT6=
PLAYORDER=
